<?xml version="1.0" standalone="no"?>
<!DOCTYPE svg PUBLIC "-//W3C//DTD SVG 20010904//EN"
 "http://www.w3.org/TR/2001/REC-SVG-20010904/DTD/svg10.dtd">
<svg version="1.0" xmlns="http://www.w3.org/2000/svg"
 width="45.000000pt" height="32.000000pt" viewBox="0 0 45.000000 32.000000"
 preserveAspectRatio="xMidYMid meet">
<metadata>
Created by potrace 1.13, written by Peter Selinger 2001-2015
</metadata>
<g transform="translate(0.000000,32.000000) scale(0.100000,-0.100000)"
fill="#000000" stroke="none">
<path d="M188 310 c-26 -5 -52 -11 -57 -15 -6 -3 -11 -37 -11 -75 0 -65 -1
-70 -27 -82 -23 -11 -29 -21 -31 -56 -2 -24 2 -50 9 -58 14 -17 91 -19 122 -2
12 6 44 10 70 9 81 -4 87 8 87 161 l0 128 -57 -1 c-32 -1 -79 -5 -105 -9z
m132 -125 c0 -93 -2 -105 -19 -115 -27 -14 -47 -13 -65 6 -21 20 -5 51 29 60
22 5 25 12 25 50 0 42 -1 44 -25 39 -14 -3 -36 -7 -50 -10 -24 -5 -25 -9 -25
-74 0 -78 -18 -105 -67 -99 -42 5 -44 43 -4 66 30 16 31 19 31 89 l0 71 53 10
c28 5 67 10 85 11 l32 1 0 -105z"/>
</g>
</svg>
